<svg class="svg-icon" style="width: 1em; height: 1em;vertical-align: middle;fill: currentColor;overflow: hidden;" viewBox="0 0 1024 1024" version="1.1" xmlns="http://www.w3.org/2000/svg"><path d="M502.857143 73.142857q-26.285714 0-45.142857 18.857143t-18.857143 45.142857v374.857143h-18.285714V210.285714q0-26.285714-18.857143-45.142857t-45.142857-18.857143-45.142858 18.857143-18.857142 45.142857v448L204.571429 541.142857q-21.714286-29.142857-58.285715-29.142857-30.285714 0-51.714285 21.428571T73.142857 585.142857q0 24.571429 14.857143 44l219.428571 292.571429q21.714286 29.142857 58.285715 29.142857h393.142857q19.428571 0 34.857143-12.571429t19.428571-32l43.428572-231.428571q2.857143-18.285714 2.857142-33.714286V356.571429q0-26.285714-18.857142-45.142858t-45.142858-18.857142-45.142857 18.857142-18.857143 45.142858v155.428571h-18.285714V210.285714q0-26.285714-18.857143-45.142857t-45.142857-18.857143-45.142857 18.857143-18.857143 45.142857v301.714286h-18.285714V137.142857q0-26.285714-18.857143-45.142857t-45.142857-18.857143z m0-73.142857q38.857143 0 71.714286 20.285714T625.142857 75.428571q10.857143-2.285714 24-2.285714 56.571429 0 96.857143 40.285714T786.285714 210.285714v9.714286q60-3.428571 103.142857 36.571429t43.142858 100v284.571428q0 22.857143-4.571429 47.428572l-43.428571 230.857142q-8 45.142857-43.714286 74.857143t-82 29.714286H365.714286q-34.285714 0-65.428572-15.714286T248.571429 965.714286L29.142857 673.142857q-29.142857-38.857143-29.142857-88 0-60.571429 42.857143-103.428571t103.428571-42.857143q44.571429 0 73.142857 19.428571V210.285714q0-56.571429 40.285715-96.857143T356.571429 73.142857q13.142857 0 24 2.285714 17.714286-34.857143 50.571428-55.142857T502.857143 0z"  /></svg>