<svg width="200" height="200" viewBox="0 0 200 200" fill="none" xmlns="http://www.w3.org/2000/svg">
<path d="M156.27 199.999H88.3534L87.5 199.996L88 200H79.5H76.5H68.5121H60.5243L67.8995 199.996H0V43.7286H62.099C62.2181 43.5526 62.2866 43.3602 62.2866 43.2082C62.2866 43.185 62.2866 43.1589 62.2825 43.1357C61.6978 42.6386 61.2356 42.2408 60.6187 41.6362C56.0821 36.9654 53.6193 30.9129 53.6193 24.5181C53.6193 10.9992 64.6206 0 78.1388 0C91.6569 0 102.657 10.9992 102.657 24.5181C102.657 30.9211 100.196 36.9729 95.7253 41.5637L94.1902 42.9241C94.1334 43.0556 94.1142 43.1514 94.1142 43.2C94.1142 43.376 94.1827 43.5567 94.2943 43.7211H156.27V105.767C156.443 105.861 156.662 105.935 156.877 105.935C157.249 105.54 157.707 105 158.369 104.334C163.039 99.8025 169.096 97.3397 175.477 97.3397C188.991 97.3397 199.993 108.343 199.993 121.858C199.993 135.38 188.992 146.377 175.477 146.377C169.088 146.377 163.031 143.914 158.423 139.436L157.069 137.956C156.818 137.917 156.493 137.984 156.27 138.097V199.999Z" fill="#487EB9"/>
</svg>
